<?xml version="1.0" encoding="UTF-8" standalone="no"?>
<svg enable-background="new 0 0 595.28 841.89" viewBox="0 0 595.28 841.89" xml:space="preserve" xmlns="http://www.w3.org/2000/svg"><defs><linearGradient gradientUnits="userSpaceOnUse" id="SVGID_1_" x1="5.0371" x2="581.4404">
	<stop offset="0" stop-color="#063"></stop>
	<stop offset="1" stop-color="#95c11f"></stop>
</linearGradient></defs>

<path d="m426.456,423.913c-.283,8.668-8.657,15.892-10.74,25.325 5.687.821 13.688-2.674 20.712-3.077 5.188-4.271 3.558-15.364 10.74-17.647 .024,5.909-2.412,9.354-3.069,14.577 13.699,2.13 26.877-6.787 42.208-3.064 1.224-11.717-6.832-20.799-12.283-28.391 11.388,6.771 18.583,17.738 24.554,29.925 10.471,1.016 15.853-3.075 23.783-4.605 6.969-11.705 13.474-27.959 24.554-32.996-3.522,9.779-10.945,15.665-12.282,27.625 12.94-4.362 29.631-10.878 46.809-6.142-24.146,1.665-41.642,13.059-60.609,20.718 15.286,4.896 39.737.845 56.779,0-10.719,6.681-28.485,6.307-42.979,9.212-5.801,5.705-6.888,16.119-12.271,22.249-1.653-4.986 2.81-10.476 2.3-16.883-10.945,4.911-17.029,14.679-29.153,18.418 6.164-7.138 14.198-12.408 19.183-20.719-18.797-5.07-31.238,9.048-48.337,10.741-.59,5.553.85,13.133-3.07,15.342-1.077-3.784-.748-8.968-.771-13.806-10.561,1.462-24.383,1.337-32.225-2.301-10.594,5.52-20.214,12.005-34.524,13.807 7.375-5.925 19.023-7.575 22.254-17.643-7.83-8.497-23.909.709-35.297-2.3 1.133,4.493 3.038,8.203 5.371,11.501-4.883,2.579-9.563-7.631-12.282-12.271-10.288.063-20.77.312-29.155-1.535-1.585,2.754-.396,8.301-.77,12.277-4.657-1.479-4.929-7.349-6.901-11.512-5.144,5.342-2.277,18.694-5.369,26.089-2.03-9.739-2.55-20.974-3.842-31.455-4.034-4.407-11.853-5.024-16.872-8.44-7.399,3.858-11.513,10.995-19.181,14.576 2.658-6.543 8.632-9.778 12.269-15.348-10.698-7.456-21.979-14.333-32.993-21.482-5.196,6.827-4.328,19.71-7.671,28.389-4.147-5.535.657-16.719-1.54-23.019-6.232,6.294-10.052,15.014-14.572,23.019-3.643-6.793 9.778-22.333 8.441-31.459-1.337-9.105-14.741-7.875-20.712-13.807-6.006,1.926-10.878,4.985-16.119,7.67 4.313,10.775 16.062,14.113 23.019,22.255-11.919-1.384-22.299-10.952-31.455-17.648-10.537,4.81-18.944,11.744-28.395,17.648-4.525,9.019-7.864,19.239-15.341,25.313 1.302-6.113 3.716-11.115 4.6-17.647-9.529,3.767-18.453,8.146-30.69,9.212-2.278,3.093-.436,10.299-4.606,11.512-.231-3.818.125-7.048.772-9.982-13.247-3.626-28.051-5.711-39.896-10.741-6.176,2.021-11.139,5.24-17.654,6.911-4.51,10.312-6.425,23.239-14.571,29.919 2.64-8.866 6.374-16.64 5.371-29.154-20.69-2.589-38.219-8.328-51.408-18.418 16.758,6.646 45.38,15.302 65.979,6.142-19.868-12.676-51.442-27.893-81.332-14.58-1.337-3.739 5.082-4.956 9.206-6.906 9.903-4.697 26.288-8.164 40.667-3.065 1.444-12.957-3.014-20.016-6.906-27.63 2.787-1.139 9.653,8.656 11.506,13.817 1.003,2.782.635,5.949 1.542,8.436 8.203-8.164 12.56-20.169 22.242-26.854-3.082,10.985-15.092,19.682-15.341,36.066 9.087,6.26 20.758,9.925 29.924,16.112 6.885-8.374.58-25.393 3.072-37.596 4.674,8.108 4.237,21.336 9.206,29.149 14.578-4.346 23.817-14.034 36.831-19.942-3.31-9.23-9.959-15.11-15.347-22.254 7.739.193 13.931,8.578 19.947,13.047-1.53-11.15-2.3-25.783-.77-37.601 3.173,12.69 4.147,27.58 9.211,38.36 11.342-5.274 22.022-11.217 36.826-13.042 8.141-7.716 11.455-20.259 17.654-29.919-.827,10.94-3.411,20.118-4.606,30.69 10.594,2.057 19.812,12.645 31.46,9.206 9.937-2.935 13.178-28.502 24.554-30.69-1.732,8.51-11.184,15.926-11.518,28.39 17.387,3.416 42.871,4.458 53.712,16.877 1.71-7.336-2.73-15.161-4.601-21.483 14.152,4.85 8.384,40.128 32.226,35.296 4.645-4.051 3.375-14.017 6.899-19.178 3.298,3.643-.361,11.292-.759,16.107 20.611,9.506 27.263-13.898 44.496-15.342-6.209,5.807-14.391,9.648-16.871,19.178 13.053,6.64 23.852,15.54 35.295,23.795 7.398-8.208 13.72-17.476 21.482-25.324zm-261.644-16.112c-6.385,3.37-18.4,8.458-19.947,14.577-1.792,7.031 2.945,14.062-.771,22.254 15.631-1.508 24.385-9.897 33.761-17.647-3.644-5.825-12.147-6.782-14.578-13.813 9.461,2.396 17.075,9.047 26.854,7.676 4.85-.691 12.431-5.762 17.642-8.447 6.408-3.291 12.651-6.646 16.119-10.741-16.259-4.697-22.747,9.393-38.361,9.976 3.808-6.163 12.316-7.636 16.112-13.812-15.143-1.739-24.916,3.682-36.831,9.977zm88.24-3.071c21.195,9.489 37.069,24.315 61.376,30.689 1.167-2.419 2.29-4.872 3.07-7.677-17.967-10.276-36.47-27.8-64.446-23.012zm-117.4,22.254c-9.541.725-18.922,8.146-26.083,13.807 7.955,3.274 18.516,6.362 29.155,4.601 .293-7.456-1.474-12.85-3.072-18.408zm185.677,13.042c3.07,1.523 6.142,3.07 9.211,4.605 .635-4.231 2.55-7.179 3.072-11.512-6.993-.589-11.512,1.27-12.283,6.907zm19.952-6.906c-.645,4.979-.996,10.254-.77,16.118 10.3,1.206 22.164,4.939 32.996,3.064-1.633-3.994-1.655-9.603-2.302-14.576-7.454-4.057-17.98-5.031-29.924-4.606zm38.368,19.947c4.984,1.739 13.178.533 17.642-.765-5.111-3.836-9.438-8.464-16.872-9.977 .544,4.386-.827,6.857-.77,10.742zm83.633-3.07c3.309,1.808 2.945,7.286 4.6,10.742 7.717-3.785 18.164-4.85 24.554-9.972-10.299.946-20.52-5.002-29.154-.77zm-19.183,2.306c-2.346,2.895.986,6.651.77,9.977 3.479,1.383 9.18.544 13.801.76-2.572-5.424-7.739-12.102-14.571-10.737zm-19.184,5.371c4.046.051 5.631,2.549 9.971,2.3-.431-2.051 2.268-4.793 0-6.141-3.161,1.438-8.032,1.172-9.971,3.841z" fill="url(#SVGID_1_)" fill-rule="evenodd"></path>
</svg>
